<svg width="11" height="12" viewBox="0 0 11 12" fill="none" xmlns="http://www.w3.org/2000/svg">
<path d="M3.344 11.28L3.152 11.344C3.00267 11.3973 2.82667 11.4347 2.624 11.456C2.432 11.4667 2.30933 11.472 2.256 11.472C2.224 11.472 2.14933 11.4667 2.032 11.456C1.92533 11.4347 1.84533 11.424 1.792 11.424C1.76 11.424 1.71733 11.4507 1.664 11.504L0.944 11.248C0.944 11.1947 0.944 11.1467 0.944 11.104C0.954667 11.0613 0.965333 11.0133 0.976 10.96C0.997333 10.8107 1.01333 10.672 1.024 10.544C1.04533 10.4053 1.04533 10.2773 1.024 10.16C1.10933 10.0747 1.12 9.81333 1.056 9.376C0.992 8.928 0.96 8.64533 0.96 8.528C0.96 8.496 0.970667 8.41067 0.992 8.272C1.01333 8.13333 1.03467 8.01067 1.056 7.904C1.06667 7.872 1.088 7.82933 1.12 7.776C1.16267 7.72267 1.184 7.664 1.184 7.6C1.16267 7.29067 1.17333 7.04 1.216 6.848C1.26933 6.64533 1.28533 6.44267 1.264 6.24C1.25333 6.18667 1.25867 6.13333 1.28 6.08C1.30133 6.02667 1.312 5.95733 1.312 5.872V5.344C1.312 5.19467 1.312 5.02933 1.312 4.848C1.312 4.656 1.31733 4.43733 1.328 4.192C1.33867 3.712 1.344 3.392 1.344 3.232C1.35467 3.072 1.37067 2.96 1.392 2.896C1.40267 2.78933 1.42933 2.704 1.472 2.64C1.52533 2.576 1.552 2.46933 1.552 2.32C1.552 2.30933 1.53067 2.27733 1.488 2.224C1.456 2.17067 1.41333 2.10133 1.36 2.016C1.328 1.97333 1.30667 1.92 1.296 1.856C1.28533 1.792 1.28 1.73333 1.28 1.68C1.29067 1.616 1.296 1.56267 1.296 1.52C1.30667 1.47733 1.312 1.35467 1.312 1.152C1.6 1.06667 1.89333 1.024 2.192 1.024C2.49067 1.024 2.73067 1.01333 2.912 0.992C2.976 0.981333 3.024 0.970666 3.056 0.959999C3.09867 0.949333 3.136 0.943999 3.168 0.943999C3.2 0.933333 3.23733 0.927999 3.28 0.927999C3.33333 0.917333 3.408 0.912 3.504 0.912C3.54667 1.01867 3.60533 1.136 3.68 1.264C3.75467 1.392 3.81333 1.50933 3.856 1.616C3.99467 1.808 4.128 1.89867 4.256 1.888C4.384 1.87733 4.50133 1.82933 4.608 1.744C4.72533 1.65867 4.82133 1.568 4.896 1.472C4.97067 1.36533 5.01867 1.312 5.04 1.312L6.848 1.328L8.224 2.272C8.27733 2.32533 8.34667 2.38933 8.432 2.464C8.51733 2.528 8.608 2.61867 8.704 2.736C8.91733 2.96 9.07733 3.06667 9.184 3.056L9.568 3.616C9.54667 3.648 9.49867 3.744 9.424 3.904C9.36 4.05333 9.264 4.26667 9.136 4.544C8.89067 5.12 8.768 5.568 8.768 5.888L8.448 6.08C8.23467 6.16533 8.128 6.384 8.128 6.736C7.94667 6.71467 7.648 6.784 7.232 6.944C7.11467 6.99733 6.98667 7.03467 6.848 7.056C6.70933 7.06667 6.58133 7.07733 6.464 7.088C6.38933 7.09867 6.31467 7.104 6.24 7.104C6.176 7.104 6.10667 7.104 6.032 7.104L5.856 7.504C5.728 7.408 5.584 7.344 5.424 7.312C5.264 7.28 5.104 7.26933 4.944 7.28C4.79467 7.29067 4.65067 7.312 4.512 7.344C4.37333 7.376 4.256 7.41333 4.16 7.456C3.808 7.584 3.62667 7.648 3.616 7.648H3.52C3.53067 7.65867 3.536 7.67467 3.536 7.696C3.51467 7.80267 3.47733 7.93067 3.424 8.08C3.38133 8.21867 3.36 8.31467 3.36 8.368C3.36 8.432 3.36533 8.52267 3.376 8.64C3.38667 8.74667 3.39733 8.89067 3.408 9.072C3.41867 9.24267 3.424 9.38667 3.424 9.504C3.43467 9.62133 3.44 9.712 3.44 9.776L3.504 10.208C3.52533 10.2933 3.54133 10.3787 3.552 10.464C3.56267 10.5387 3.57867 10.6187 3.6 10.704L3.344 11.28ZM3.936 2.704C3.936 2.78933 3.936 2.89067 3.936 3.008C3.94667 3.12533 3.95733 3.25867 3.968 3.408C4.02133 4.06933 4.03733 4.464 4.016 4.592C3.80267 4.72 3.67467 4.912 3.632 5.168C3.6 5.30667 3.568 5.44 3.536 5.568C3.504 5.68533 3.46667 5.78667 3.424 5.872L3.392 5.904C3.392 6.02133 3.392 6.10667 3.392 6.16C3.40267 6.21333 3.408 6.27733 3.408 6.352L3.712 6.56L4.016 6.48C4.016 6.71467 4.304 6.70933 4.88 6.464C5.44533 6.22933 5.76533 6.112 5.84 6.112H6.512C6.59733 5.99467 6.69867 5.872 6.816 5.744C6.93333 5.60533 6.992 5.52 6.992 5.488L7.2 4.32L7.104 3.92L4.976 2.4H4.272L3.936 2.704ZM8.576 11.312C8.55467 11.216 8.49067 11.152 8.384 11.12C8.34133 11.0773 8.32533 11.0187 8.336 10.944C8.34667 10.8693 8.336 10.8213 8.304 10.8C8.29333 10.7787 8.28267 10.768 8.272 10.768C8.26133 10.768 8.24533 10.7627 8.224 10.752C8.21333 10.7307 8.18133 10.6933 8.128 10.64C8.096 10.5973 8.05867 10.5547 8.016 10.512C7.97333 10.4587 7.92533 10.3893 7.872 10.304C7.75467 10.1547 7.664 10.0373 7.6 9.952C7.536 9.856 7.488 9.79733 7.456 9.776C7.41333 9.75467 7.34933 9.712 7.264 9.648C7.17867 9.584 7.12 9.54667 7.088 9.536C7.056 9.504 7.02933 9.46667 7.008 9.424C6.98667 9.38133 6.96533 9.34933 6.944 9.328C6.92267 9.30667 6.896 9.232 6.864 9.104C6.832 8.976 6.8 8.864 6.768 8.768C6.65067 8.66133 6.47467 8.46933 6.24 8.192C6.16533 8.11733 6.12267 8.06933 6.112 8.048L6.32 7.744L7.088 8.128C7.09867 8.13867 7.152 8.13867 7.248 8.128C7.35467 8.11733 7.46667 8.112 7.584 8.112C7.70133 8.10133 7.81333 8.10133 7.92 8.112C8.03733 8.12267 8.112 8.15467 8.144 8.208C8.18667 8.26133 8.24 8.29867 8.304 8.32C8.368 8.34133 8.432 8.36267 8.496 8.384C8.57067 8.39467 8.62933 8.40533 8.672 8.416C8.72533 8.42667 8.75733 8.448 8.768 8.48L9.088 9.072C9.13067 9.12533 9.20533 9.216 9.312 9.344C9.42933 9.46133 9.584 9.62667 9.776 9.84C10.16 10.288 10.3573 10.5173 10.368 10.528L10.32 11.088L9.04 11.456L8.576 11.312Z" fill="#CF6868"/>
</svg>
